<svg xmlns="http://www.w3.org/2000/svg" width="512" height="512" viewBox="0 0 512 512" version="1.1"><path d="M 349.333 83.635 C 348.141 83.900, 346.105 85.104, 344.809 86.309 C 343.236 87.771, 332.668 112.669, 313.027 161.186 C 296.842 201.163, 283.240 233.649, 282.800 233.377 C 282.360 233.105, 282 231.975, 282 230.867 C 282 226.568, 276.658 213.254, 272.307 206.709 C 263.294 193.152, 247.479 183.872, 224.771 178.814 C 216.572 176.988, 211.441 176.523, 199.334 176.513 C 184.652 176.500, 184.085 176.577, 181.584 178.924 C 180.163 180.258, 179 181.659, 179 182.039 C 179 182.635, 156.701 219.626, 125.761 270.356 L 116.700 285.211 115.238 280.886 C 113.434 275.546, 107.133 266.131, 103.087 262.726 C 85.994 248.344, 55.364 245.719, 36.559 257.026 C 25.385 263.744, 16.327 277.302, 15.277 288.879 C 14.133 301.503, 22.627 350.941, 29.644 372.500 C 36.726 394.255, 47.607 406.186, 70.298 417.074 C 86.365 424.784, 118.787 430.660, 127 427.351 C 130.141 426.085, 133.779 420.659, 162.485 374.410 L 194.469 322.880 196.633 338.190 C 200.765 367.421, 206.333 383.544, 216.795 396.569 C 222.049 403.110, 232.312 411.289, 241.230 416.042 C 254.365 423.043, 275.446 428, 292.083 428 C 304.517 428, 308.382 426.601, 310.782 421.231 C 311.727 419.117, 323.975 387.868, 338 351.789 C 352.025 315.710, 363.607 286.486, 363.739 286.846 C 363.870 287.205, 366.874 311.125, 370.415 340 C 373.955 368.875, 377.537 394.403, 378.374 396.728 C 385.027 415.213, 405.738 428.024, 428.910 427.988 C 440.741 427.970, 448.443 425.420, 458.272 418.270 C 466.571 412.232, 476.969 395.452, 476.990 388.064 C 477.014 379.587, 451.902 185.655, 446.977 156.289 C 444.471 141.342, 443.559 138.011, 440.042 130.965 C 428.193 107.218, 412.373 93.588, 388.307 86.391 C 380.981 84.200, 377.145 83.706, 365.500 83.455 C 357.800 83.289, 350.525 83.370, 349.333 83.635 M 352.905 93.591 C 351.868 93.913, 338.929 124.678, 315.926 181.514 C 296.464 229.599, 280.259 268.617, 279.914 268.221 C 279.569 267.824, 278.065 261.200, 276.571 253.500 C 270.674 223.100, 267.921 215.940, 258.500 206.502 C 248.334 196.319, 232.221 189.525, 212.500 187.109 C 199.829 185.556, 188.233 185.650, 187.823 187.310 C 187.222 189.747, 110.738 315.072, 110.188 314.522 C 109.888 314.221, 108.899 307.569, 107.991 299.738 C 106.975 290.974, 105.615 283.962, 104.455 281.500 C 101.772 275.803, 93.433 267.817, 87 264.783 C 75.476 259.348, 59.339 258.605, 47.753 262.974 C 40.266 265.798, 32.281 273.116, 28.460 280.659 C 25.896 285.718, 25.520 287.505, 25.646 294 C 25.814 302.679, 28.980 324.829, 32.620 342.806 C 37.498 366.893, 42.686 381.250, 49.531 389.604 C 57.426 399.238, 75.614 409.810, 91.344 413.907 C 100.919 416.402, 114.280 418.254, 119.572 417.821 L 123.492 417.500 161.951 355.688 C 190.153 310.361, 200.585 294.360, 201.064 295.688 C 201.424 296.685, 202.262 302, 202.925 307.500 C 207.578 346.058, 211.039 364.493, 215.537 374.675 C 227.172 401.009, 255.374 417.103, 290.416 417.406 L 301.332 417.500 334.916 331.258 C 364.599 255.034, 368.588 245.392, 369.255 248.258 C 369.671 250.041, 373.826 282.877, 378.490 321.228 C 387.898 398.598, 387.461 396.511, 396.087 405.167 C 408.027 417.147, 429.672 421.417, 444.364 414.691 C 451.509 411.420, 459.372 403.537, 463.823 395.184 L 467.145 388.947 464.998 371.724 C 449.448 247.029, 439.751 173.637, 436.077 152.847 C 433.307 137.170, 427.599 126.500, 415.547 114.468 C 400.996 99.942, 387.504 94.229, 366 93.490 C 359.675 93.272, 353.782 93.318, 352.905 93.591" stroke="none" fill="#f9fafb" fill-rule="evenodd"/><path d="M 352.905 93.591 C 351.868 93.913, 338.929 124.678, 315.926 181.514 C 296.464 229.599, 280.259 268.617, 279.914 268.221 C 279.569 267.824, 278.065 261.200, 276.571 253.500 C 270.674 223.100, 267.921 215.940, 258.500 206.502 C 248.334 196.319, 232.221 189.525, 212.500 187.109 C 199.829 185.556, 188.233 185.650, 187.823 187.310 C 187.222 189.747, 110.738 315.072, 110.188 314.522 C 109.888 314.221, 108.899 307.569, 107.991 299.738 C 106.975 290.974, 105.615 283.962, 104.455 281.500 C 101.772 275.803, 93.433 267.817, 87 264.783 C 75.476 259.348, 59.339 258.605, 47.753 262.974 C 40.266 265.798, 32.281 273.116, 28.460 280.659 C 25.896 285.718, 25.520 287.505, 25.646 294 C 25.814 302.679, 28.980 324.829, 32.620 342.806 C 37.498 366.893, 42.686 381.250, 49.531 389.604 C 57.426 399.238, 75.614 409.810, 91.344 413.907 C 100.919 416.402, 114.280 418.254, 119.572 417.821 L 123.492 417.500 161.951 355.688 C 190.153 310.361, 200.585 294.360, 201.064 295.688 C 201.424 296.685, 202.262 302, 202.925 307.500 C 207.578 346.058, 211.039 364.493, 215.537 374.675 C 227.172 401.009, 255.374 417.103, 290.416 417.406 L 301.332 417.500 334.916 331.258 C 364.599 255.034, 368.588 245.392, 369.255 248.258 C 369.671 250.041, 373.826 282.877, 378.490 321.228 C 387.898 398.598, 387.461 396.511, 396.087 405.167 C 408.027 417.147, 429.672 421.417, 444.364 414.691 C 451.509 411.420, 459.372 403.537, 463.823 395.184 L 467.145 388.947 464.998 371.724 C 449.448 247.029, 439.751 173.637, 436.077 152.847 C 433.307 137.170, 427.599 126.500, 415.547 114.468 C 400.996 99.942, 387.504 94.229, 366 93.490 C 359.675 93.272, 353.782 93.318, 352.905 93.591" stroke="none" fill="#0454b1" fill-rule="evenodd"/></svg>